HIERARCHY
ROOT joint_0
{
	OFFSET 0.000000 0.000000 0.000000
	CHANNELS 6 Xposition Yposition Zposition Zrotation Yrotation Xrotation 
	JOINT joint_1
	{
		OFFSET 7.566162 2.250183 114.799927
		CHANNELS 3 Zrotation Yrotation Xrotation
		JOINT joint_2
		{
			OFFSET -5.201660 -0.414001 104.936035
			CHANNELS 3 Zrotation Yrotation Xrotation
			JOINT joint_3
			{
				OFFSET -6.923584 -0.419739 104.718018
				CHANNELS 3 Zrotation Yrotation Xrotation
				JOINT joint_4
				{
					OFFSET 3.108887 2.881104 149.449951
					CHANNELS 3 Zrotation Yrotation Xrotation
					JOINT joint_5
					{
						OFFSET 19.988770 5.920349 90.786987
						CHANNELS 3 Zrotation Yrotation Xrotation
						End Site
						{
							OFFSET 0.000000 0.000000 0.000000
						}
					}
				}
				JOINT joint_6
				{
					OFFSET 9.283936 -30.015930 84.410034
					CHANNELS 3 Zrotation Yrotation Xrotation
					JOINT joint_7
					{
						OFFSET 47.243164 -155.716736 -23.241089
						CHANNELS 3 Zrotation Yrotation Xrotation
						JOINT joint_8
						{
							OFFSET 31.323730 -15.356873 -268.798950
							CHANNELS 3 Zrotation Yrotation Xrotation
							JOINT joint_9
							{
								OFFSET 28.122314 -2.114624 -262.450012
								CHANNELS 3 Zrotation Yrotation Xrotation
								End Site
								{
									OFFSET 0.000000 0.000000 0.000000
								}
							}
						}
					}
				}
				JOINT joint_10
				{
					OFFSET -5.580566 33.311218 83.498047
					CHANNELS 3 Zrotation Yrotation Xrotation
					JOINT joint_11
					{
						OFFSET -22.773438 160.515381 -27.138062
						CHANNELS 3 Zrotation Yrotation Xrotation
						JOINT joint_12
						{
							OFFSET 27.004395 30.848877 -267.937988
							CHANNELS 3 Zrotation Yrotation Xrotation
							JOINT joint_13
							{
								OFFSET 32.625000 14.824585 -261.518005
								CHANNELS 3 Zrotation Yrotation Xrotation
								End Site
								{
									OFFSET 0.000000 0.000000 0.000000
								}
							}
						}
					}
				}
			}
		}
	}
	JOINT joint_14
	{
		OFFSET 20.623535 -83.447632 -106.174011
		CHANNELS 3 Zrotation Yrotation Xrotation
		JOINT joint_15
		{
			OFFSET 0.661865 -23.563843 -459.915039
			CHANNELS 3 Zrotation Yrotation Xrotation
			JOINT joint_16
			{
				OFFSET -23.461670 -28.727966 -444.760971
				CHANNELS 3 Zrotation Yrotation Xrotation
				JOINT joint_17
				{
					OFFSET 178.992920 54.047363 -80.113001
					CHANNELS 3 Zrotation Yrotation Xrotation
					End Site
					{
						OFFSET 0.000000 0.000000 0.000000
					}
				}
			}
		}
	}
	JOINT joint_18
	{
		OFFSET -19.571533 84.686279 -105.380005
		CHANNELS 3 Zrotation Yrotation Xrotation
		JOINT joint_19
		{
			OFFSET -22.949951 3.639404 -459.933044
			CHANNELS 3 Zrotation Yrotation Xrotation
			JOINT joint_20
			{
				OFFSET -33.690674 4.092651 -445.010971
				CHANNELS 3 Zrotation Yrotation Xrotation
				JOINT joint_21
				{
					OFFSET 187.419678 18.953857 -76.759001
					CHANNELS 3 Zrotation Yrotation Xrotation
					End Site
					{
						OFFSET 0.000000 0.000000 0.000000
					}
				}
			}
		}
	}
}
MOTION
Frames: 10
Frame Time: 0.016667
-2962.967285 964.406860 1113.822998 -8.059625 -3.644299 1.968186 -0.121536 -2.426106 0.695699 0.148631 0.468063 0.013144 0.174008 -0.655597 0.111377 -0.001178 -0.196166 0.065591 0.000000 0.000000 0.000000 -1.319969 5.176763 -4.187929 -2.611903 4.573536 -3.896551 4.585089 -44.504865 44.597811 0.000000 0.000000 0.000000 3.099265 6.619526 0.365963 7.155057 7.026219 4.745188 -2.448771 -57.292003 -30.616360 0.000000 0.000000 0.000000 -1.042758 -9.442261 -1.278460 -3.714060 48.952783 -10.272085 -8.903120 -12.309019 0.732762 0.000000 0.000000 0.000000 0.498911 11.128893 -2.895638 -0.399561 19.513060 -3.576620 -1.654701 3.402038 -0.937477 0.000000 0.000000 0.000000 
-2949.299072 963.033081 1112.784058 -7.914073 -3.298824 1.612461 -0.146998 -2.083221 1.040616 -0.039876 0.360892 -0.116487 -0.010225 -0.537801 0.172971 -0.004464 -0.503164 0.179319 0.000000 0.000000 0.000000 -0.980077 5.221811 -4.401652 -3.055941 4.428379 -4.773438 4.480197 -44.011956 47.848559 0.000000 0.000000 0.000000 3.106481 6.309673 0.505432 7.654965 6.764250 4.923586 -2.299812 -57.686385 -33.706520 0.000000 0.000000 0.000000 -1.285307 -9.600441 -0.706388 -4.029536 44.649947 -10.085267 -8.484808 -13.421108 1.094523 0.000000 0.000000 0.000000 0.371572 11.244683 -2.487572 -0.154458 19.848010 -3.681505 -1.529163 3.951603 -0.947835 0.000000 0.000000 0.000000 
-2935.153564 961.505188 1111.421021 -7.576213 -2.567221 1.289262 -0.225713 -2.153898 1.283586 -0.279835 0.279789 -0.220214 -0.245551 -0.492320 0.266212 -0.027244 -0.755618 0.363402 0.000000 0.000000 0.000000 -0.660990 5.509330 -4.660895 -3.398391 4.472980 -5.794654 4.386627 -43.228974 50.875753 0.000000 0.000000 0.000000 3.170197 6.134411 0.695326 8.107436 6.621528 5.021399 -2.157959 -57.513046 -37.129557 0.000000 0.000000 0.000000 -1.455240 -9.587143 -0.297490 -4.222417 38.480284 -9.344734 -7.404983 -13.680769 1.424914 0.000000 0.000000 0.000000 0.138650 10.926500 -2.056234 0.087297 20.233481 -3.844732 -1.429095 4.468900 -0.964788 0.000000 0.000000 0.000000 
-2920.834961 959.601440 1109.387939 -7.394294 -1.949523 1.078379 -0.214979 -2.093977 1.371347 -0.408403 0.215105 -0.229530 -0.375196 -0.444531 0.336276 -0.036458 -1.056698 0.504733 0.000000 0.000000 0.000000 -0.423229 5.816432 -4.922273 -3.735369 4.509772 -6.842727 4.256509 -42.519910 53.626166 0.000000 0.000000 0.000000 3.113671 6.373875 0.875894 8.571204 6.910814 5.358366 -2.001341 -57.988970 -40.003336 0.000000 0.000000 0.000000 -1.511247 -9.236172 -0.023547 -4.227807 32.687095 -8.426539 -6.373526 -12.971170 1.494642 0.000000 0.000000 0.000000 -0.018019 10.602015 -1.626056 0.332749 20.960830 -4.187588 -1.383657 4.842381 -0.986035 0.000000 0.000000 0.000000 
-2905.438232 957.109009 1106.056030 -7.681274 -1.590122 0.885850 0.040630 -1.899943 1.595048 -0.261810 0.221537 -0.277237 -0.229044 -0.437591 0.360994 -0.021009 -1.435021 0.563394 0.000000 0.000000 0.000000 -0.492594 6.207441 -5.255713 -4.104039 4.608169 -7.867613 4.060727 -42.335579 56.068416 0.000000 0.000000 0.000000 2.688536 7.448736 0.907550 9.104977 8.099860 6.335921 -1.793579 -60.126887 -41.843472 0.000000 0.000000 0.000000 -1.414221 -8.508229 0.354578 -4.016370 27.996082 -7.657787 -5.472574 -11.829438 1.436484 0.000000 0.000000 0.000000 0.001927 10.615789 -1.132770 0.682475 21.854790 -4.787387 -1.309597 5.111014 -0.985569 0.000000 0.000000 0.000000 
-2889.868408 954.239746 1102.055054 -8.189129 -1.342608 0.691135 0.396504 -1.586910 1.877976 0.019619 0.247112 -0.351721 0.052387 -0.422789 0.366080 0.002087 -1.857292 0.608625 0.000000 0.000000 0.000000 -0.643279 6.626492 -5.587351 -4.504162 4.705429 -8.946548 3.802382 -42.316466 58.303017 0.000000 0.000000 0.000000 2.130730 8.953998 0.693130 9.632774 9.746567 7.817976 -1.533285 -63.012242 -42.948220 0.000000 0.000000 0.000000 -1.201750 -7.586841 0.759928 -3.634560 23.960970 -6.932510 -4.589482 -10.452711 1.332457 0.000000 0.000000 0.000000 0.092462 10.645148 -0.537016 1.080099 23.067125 -5.594829 -1.278086 5.264619 -0.988478 0.000000 0.000000 0.000000 
-2877.145508 951.404724 1098.927002 -8.587429 -1.277909 0.493952 0.512826 -0.615710 2.004269 0.227759 0.122818 -0.349837 0.273989 -0.201248 0.361980 0.027486 -2.355256 0.681203 0.000000 0.000000 0.000000 -0.254101 6.646370 -5.741690 -4.990678 4.442043 -10.079398 3.491643 -41.604219 60.529402 0.000000 0.000000 0.000000 2.010142 9.950108 0.447133 10.028911 10.818509 9.150620 -1.331642 -65.197297 -43.758557 0.000000 0.000000 0.000000 -0.935029 -6.906846 1.075516 -3.253252 21.590948 -6.359734 -3.954798 -9.351353 1.240881 0.000000 0.000000 0.000000 0.135410 10.157971 0.294942 1.385280 25.365306 -6.599794 -1.509703 5.078618 -1.048650 0.000000 0.000000 0.000000 
-2868.891602 948.596313 1097.187012 -8.774556 -1.560089 0.085979 0.132082 1.697178 2.185241 0.248214 -0.320784 -0.355262 0.355267 0.404208 0.327948 0.076635 -3.162339 0.774755 0.000000 0.000000 0.000000 1.137062 5.906849 -5.764462 -5.581103 3.585436 -11.203255 3.174776 -39.752938 62.852402 0.000000 0.000000 0.000000 2.829832 9.996549 0.547380 10.257032 10.809383 9.831228 -1.336311 -66.227151 -44.603742 0.000000 0.000000 0.000000 -0.586069 -6.700354 1.506792 -2.966887 22.007428 -6.089177 -3.680331 -9.094518 1.289134 0.000000 0.000000 0.000000 0.040235 9.035111 1.709749 1.512353 29.236721 -7.873902 -2.235908 4.483820 -1.237088 0.000000 0.000000 0.000000 
-2863.483643 945.821228 1096.321045 -8.773980 -2.086737 -0.482168 -0.531926 4.800611 2.467695 0.192030 -0.897255 -0.436353 0.399247 1.097044 0.288926 0.138224 -4.089643 0.878746 0.000000 0.000000 0.000000 2.998449 4.717324 -5.887817 -6.157927 2.489869 -12.188544 2.913683 -37.125121 65.057414 0.000000 0.000000 0.000000 4.145916 9.556531 0.921525 10.348270 10.262646 10.046935 -1.510096 -66.598649 -45.323729 0.000000 0.000000 0.000000 -0.209654 -6.688131 2.052740 -2.759639 24.130090 -5.977482 -3.630547 -9.324053 1.412007 0.000000 0.000000 0.000000 -0.154510 7.530167 3.562132 1.503699 34.042343 -9.264601 -3.380898 3.925003 -1.573266 0.000000 0.000000 0.000000 
-2859.074951 943.513367 1096.338013 -8.491105 -2.442889 -0.861977 -1.111038 7.199163 2.565685 0.187964 -1.214105 -0.478066 0.479558 1.474012 0.287683 0.159448 -4.530517 0.974603 0.000000 0.000000 0.000000 4.509839 3.675832 -6.072668 -6.593730 1.608187 -13.020083 2.728958 -34.090542 66.876750 0.000000 0.000000 0.000000 5.000152 9.035251 1.238435 10.342713 9.713152 10.096403 -1.715298 -66.461740 -45.791221 0.000000 0.000000 0.000000 0.031102 -6.677770 2.367137 -2.666196 25.790767 -5.809291 -3.656231 -9.356077 1.437673 0.000000 0.000000 0.000000 -0.342354 5.497352 5.289404 1.405021 38.996639 -10.436911 -4.618514 3.766533 -1.986972 0.000000 0.000000 0.000000 
